<?xml version="1.0" encoding="UTF-8"?>
<svg xmlns="http://www.w3.org/2000/svg" xmlns:xlink="http://www.w3.org/1999/xlink" width="3750" height="2175" viewBox="0 0 3750 2175">


<path fill-rule="nonzero" fill="rgb(20.776367%, 32.542419%, 40.795898%)" fill-opacity="1" d="M 1365.011719 661.378906 L 1466.191406 942.480469 L 1445.621094 1076.191406 L 1501.121094 1219.335938 L 1700.039062 832.761719 L 1448.359375 647.75 Z M 1365.011719 661.378906 "/>
<path fill-rule="nonzero" fill="rgb(20.776367%, 32.542419%, 40.795898%)" fill-opacity="1" d="M 2307.859375 149.679688 L 2209.351562 152.601562 L 2166.550781 237.128906 L 2227.691406 453.679688 L 2128.320312 707.5 L 2195.46875 1019.269531 L 2165.96875 1108.300781 L 2279.699219 1161.371094 L 2311.519531 1284.609375 L 2287.839844 1360.367188 L 2271.148438 1508.402344 L 1991.320312 1891.050781 L 2504.410156 1418.332031 L 2585.910156 1445.558594 L 2762.898438 1582.066406 L 2626.671875 1554.839844 L 2723.710938 1710.140625 L 2866.929688 1786.949219 L 2941.480469 2025.320312 L 3562.5 2025.320312 L 3312.960938 1634.636719 L 3062.371094 1537.265625 L 2915.679688 1404.835938 L 2718.128906 1060.140625 L 2564.949219 978.339844 L 2546.558594 568.871094 L 2364.699219 404.808594 Z M 2307.859375 149.679688 "/>
<path fill-rule="nonzero" fill="rgb(28.24707%, 44.700623%, 55.664062%)" fill-opacity="1" d="M 2718.128906 1060.140625 L 2749.710938 1391.730469 L 2927.078125 1585.152344 L 2982.96875 1698.960938 L 3094.238281 1549.648438 L 3062.371094 1537.265625 L 2915.679688 1404.835938 Z M 2718.128906 1060.140625 "/>
<path fill-rule="nonzero" fill="rgb(28.24707%, 44.700623%, 55.664062%)" fill-opacity="1" d="M 3148.550781 1570.753906 L 3065.25 1842.113281 L 3516.25 1952.902344 L 3312.960938 1634.636719 Z M 3148.550781 1570.753906 "/>
<path fill-rule="nonzero" fill="rgb(20.776367%, 32.542419%, 40.795898%)" fill-opacity="1" d="M 1697.121094 1396.617188 L 1538.378906 1747.144531 L 1433.96875 1727.246094 L 1306.28125 1754.824219 L 1154.910156 1931.835938 L 934.847656 1901.808594 L 1117.269531 1689.539062 L 1253.5 1655.324219 L 1390.5 1666.84375 Z M 1697.121094 1396.617188 "/>
<path fill-rule="nonzero" fill="rgb(20.776367%, 32.542419%, 40.795898%)" fill-opacity="1" d="M 560.71875 1649.246094 L 402.667969 1744.675781 L 187.5 2025.320312 L 436.648438 2025.320312 L 512.207031 1811.890625 Z M 560.71875 1649.246094 "/>
<path fill-rule="nonzero" fill="rgb(48.242188%, 63.476562%, 73.242188%)" fill-opacity="1" d="M 2504.410156 1418.332031 L 2383.21875 1788.242188 L 2273.390625 1732.613281 L 1991.320312 1891.050781 Z M 2504.410156 1418.332031 "/>
<path fill-rule="nonzero" fill="rgb(48.242188%, 63.476562%, 73.242188%)" fill-opacity="1" d="M 1433.96875 1727.246094 L 1154.910156 1931.835938 L 1306.28125 1754.824219 Z M 1433.96875 1727.246094 "/>
<path fill-rule="nonzero" fill="rgb(48.242188%, 63.476562%, 73.242188%)" fill-opacity="1" d="M 1365.011719 661.378906 L 1147.390625 1151.359375 L 983.898438 1231.292969 L 560.71875 1649.246094 L 841.628906 1160.429688 L 1081.390625 1037.730469 Z M 1365.011719 661.378906 "/>
<path fill-rule="nonzero" fill="rgb(48.242188%, 63.476562%, 73.242188%)" fill-opacity="1" d="M 2128.320312 707.5 L 1920.808594 1001.410156 L 1776.859375 1220.742188 L 2088.921875 992.78125 Z M 2128.320312 707.5 "/>
<path fill-rule="nonzero" fill="rgb(48.242188%, 63.476562%, 73.242188%)" fill-opacity="1" d="M 2120.601562 327.871094 L 1900.679688 648.289062 L 1851.019531 707.738281 L 1929.078125 528.53125 L 1946.859375 401.878906 Z M 2120.601562 327.871094 "/>
<path fill-rule="nonzero" fill="rgb(48.242188%, 63.476562%, 73.242188%)" fill-opacity="1" d="M 659.011719 1923.40625 L 833.359375 1720.328125 L 953.964844 1681.691406 L 1062.089844 1575.105469 L 864.25 1842.707031 L 752.957031 1867.453125 Z M 659.011719 1923.40625 "/>
</svg>
